# xmcd
#
# Track frame offsets:
#	150
#	16772
#	33277
#	48465
#	65327
#	83877
#	100755
#	114062
#	127582
#	144177
#	160662
#	175830
#	192675
#	211220
#	228052
#	241360
#
# Disc length: 3398 seconds
#
# Revision: 1
# Processed by: cddbd v1.5.1PL0 Copyright (c) Steve Scherf et al.
# Submitted via: audiograbber 1.83.01
#
DISCID=bb0d4410
DTITLE=Sound Choice - Sc3080
DYEAR=2000
DGENRE=Country
TTITLE0=Hayes, Wade - How Do You Sleep At Night
TTITLE1=Stone, Doug - Gone Out Of My Mind
TTITLE2=Travis, Randy - Hole, The
TTITLE3=Strait, George - True
TTITLE4=Wilkinsons, The - 26 Cents
TTITLE5=McCann, Lila - Yippy Ky Yay
TTITLE6=Petrone, Shana - Heaven Bound
TTITLE7=McCoy, Neal - Love Happens Like That
TTITLE8=Hayes, Wade - How Do You Sleep At Night (Vocals On Right Channel Only)
TTITLE9=Stone, Doug - Gone Out Of My Mind (Vocals On Right Channel Only)
TTITLE10=Travis, Randy - Hole, The (Vocals On Right Channel Only)
TTITLE11=Strait, George - True (Vocals On Right Channel Only)
TTITLE12=Wilkinsons, The - 26 Cents (Vocals On Right Channel Only)
TTITLE13=McCann, Lila - Yippy Ky Yay (Vocals On Right Channel Only)
TTITLE14=Petrone, Shana - Heaven Bound (Vocals On Right Channel Only)
TTITLE15=McCoy, Neal - Love Happens Like That (Vocals On Right Channel Only)
EXTD=
EXTT0=
EXTT1=
EXTT2=
EXTT3=
EXTT4=
EXTT5=
EXTT6=
EXTT7=
EXTT8=
EXTT9=
EXTT10=
EXTT11=
EXTT12=
EXTT13=
EXTT14=
EXTT15=
PLAYORDER=
